<?xml version="1.0" encoding="UTF-8"?>
<svg width="400" height="300" viewBox="0 0 400 300" xmlns="http://www.w3.org/2000/svg">
    <!-- Background Elements -->
    <defs>
        <linearGradient id="grad1" x1="0%" y1="0%" x2="100%" y2="100%">
            <stop offset="0%" style="stop-color:#3eb8ba;stop-opacity:0.1" />
            <stop offset="100%" style="stop-color:#3eb8ba;stop-opacity:0.3" />
        </linearGradient>
    </defs>

    <!-- Abstract Brain/Network Structure -->
    <g transform="translate(200,150)">
        <!-- Central Node -->
        <circle cx="0" cy="0" r="30" fill="#3eb8ba" opacity="0.9" />

        <!-- Connecting Nodes -->
        <circle cx="-80" cy="-60" r="20" fill="#3eb8ba" opacity="0.7" />
        <circle cx="80" cy="-60" r="20" fill="#3eb8ba" opacity="0.7" />
        <circle cx="-60" cy="80" r="20" fill="#3eb8ba" opacity="0.7" />
        <circle cx="60" cy="80" r="20" fill="#3eb8ba" opacity="0.7" />

        <!-- Connecting Lines -->
        <line x1="-80" y1="-60" x2="0" y2="0" stroke="#3eb8ba" stroke-width="2" opacity="0.5" />
        <line x1="80" y1="-60" x2="0" y2="0" stroke="#3eb8ba" stroke-width="2" opacity="0.5" />
        <line x1="-60" y1="80" x2="0" y2="0" stroke="#3eb8ba" stroke-width="2" opacity="0.5" />
        <line x1="60" y1="80" x2="0" y2="0" stroke="#3eb8ba" stroke-width="2" opacity="0.5" />

        <!-- Idea Sparks -->
        <path d="M-40,-40 L-50,-50 M40,-40 L50,-50 M-30,40 L-40,50 M30,40 L40,50"
            stroke="#3eb8ba" stroke-width="2" opacity="0.8" />

        <!-- Growth Arrows -->
        <path d="M-90,-70 L-100,-80 M90,-70 L100,-80 M-70,90 L-80,100 M70,90 L80,100"
            stroke="#3eb8ba" stroke-width="2" opacity="0.6" />
    </g>

    <!-- Decorative Elements -->
    <circle cx="50" cy="50" r="40" fill="url(#grad1)" opacity="0.5" />
    <circle cx="350" cy="250" r="30" fill="url(#grad1)" opacity="0.5" />
</svg> 