<svg width="100%" height="100%" viewBox="0 0 800 400" fill="none" xmlns="http://www.w3.org/2000/svg">
    <g stroke="#cccccc" stroke-width="1">
        <path d="M100,300 Q200,250 300,300 T500,300 T700,250" />
        <path d="M120,280 Q220,230 320,280 T520,280 T720,230" />
        <path d="M140,260 Q240,210 340,260 T540,260 T740,210" />
        <path d="M160,240 Q260,190 360,240 T560,240 T760,190" />
        <path d="M180,220 Q280,170 380,220 T580,220 T780,170" />
        <path d="M200,200 Q300,150 400,200 T600,200 T800,150" />
        <path d="M250,180 Q350,130 450,180 T650,180" />
        <path d="M300,160 Q400,110 500,160 T700,160" />
        <path d="M350,140 Q450,90 550,140 T750,140" />
        <path d="M400,120 Q500,70 600,120 T800,120" />
        <path d="M600,350 Q650,300 700,350 T800,350" />
        <path d="M650,370 Q700,320 750,370 T800,370" />
        <path d="M700,390 Q750,340 800,390" />
        <path d="M0,100 Q100,50 200,100 T400,100 T600,50 T800,100" />
        <path d="M0,120 Q100,70 200,120 T400,120 T600,70 T800,120" />
        <path d="M0,140 Q100,90 200,140 T400,140 T600,90 T800,140" />
        <path d="M0,160 Q100,110 200,160 T400,160 T600,110 T800,160" />
    </g>
</svg> 