<svg id="Layer_1" data-name="Layer 1" xmlns="http://www.w3.org/2000/svg" viewBox="0 0 595.28 841.89"><defs><style>.cls-1{fill:#41c1c4;}.cls-2{fill:#0c1b32;}</style></defs><title>BVR svgs</title><rect class="cls-1" x="246.16" y="340.42" width="29.25" height="124.73"/><polygon class="cls-2" points="275.41 465.15 286.06 435.9 348.43 435.9 337.78 465.15 275.41 465.15"/><path class="cls-1" d="M195.2,484.53h3V501.3h-3Zm1.51,14.16h5.37a3.75,3.75,0,0,0,2.33-.6,2,2,0,0,0,.76-1.69v0a2.58,2.58,0,0,0-.3-1.28,2,2,0,0,0-.93-.81,3.7,3.7,0,0,0-1.55-.28h-5.68V491.4h5.68a2.82,2.82,0,0,0,1.89-.55,2,2,0,0,0,.65-1.6,1.88,1.88,0,0,0-.69-1.58,3.2,3.2,0,0,0-2-.54h-5.51v-2.6h5.79a7.37,7.37,0,0,1,3,.54,4,4,0,0,1,1.84,1.57,4.59,4.59,0,0,1,.62,2.43,3.59,3.59,0,0,1-.39,1.68,3.28,3.28,0,0,1-1.17,1.26,4.88,4.88,0,0,1-1.88.7,4.71,4.71,0,0,1,2,.69,3.75,3.75,0,0,1,1.26,1.4,4.12,4.12,0,0,1,.44,1.9v0a4.42,4.42,0,0,1-.66,2.43,4.24,4.24,0,0,1-1.89,1.59,7.08,7.08,0,0,1-2.92.55h-6Z"/><path class="cls-1" d="M209.88,484.53H213l4.12,12.17,4.12-12.17h3.15l-6,16.77h-2.55Z"/><path class="cls-1" d="M226.94,484.51h3V501.3h-3Zm1.24,7.23h6.27a2.23,2.23,0,0,0,1.11-.28,1.88,1.88,0,0,0,.74-.81,2.82,2.82,0,0,0,0-2.41,2,2,0,0,0-.75-.8,2.14,2.14,0,0,0-1.12-.28h-6.27v-2.65h6.36a5.66,5.66,0,0,1,2.7.62,4.32,4.32,0,0,1,1.81,1.73,5.49,5.49,0,0,1,0,5.18,4.44,4.44,0,0,1-1.81,1.73,5.72,5.72,0,0,1-2.7.61h-6.36Zm4.39,2.12,3.11-.53,4.78,8h-3.59Z"/><path class="cls-2" d="M250.54,484.53h3V501.3h-3ZM252,498.66h10.54v2.64H252Z"/><path class="cls-2" d="M270.58,484.53h2.18l6.84,16.77h-3.22l-4.71-12.49L267,501.3h-3.22Zm-3.62,11h9.58v2.64H267Z"/><path class="cls-2" d="M283.84,500.74a5.1,5.1,0,0,1-2.23-2.13,7,7,0,0,1-.76-3.38v-10.7h3v10.78a3.39,3.39,0,0,0,.92,2.54,4.23,4.23,0,0,0,5.22,0,3.36,3.36,0,0,0,.93-2.54V484.53h3v10.7a7,7,0,0,1-.77,3.38,5.08,5.08,0,0,1-2.24,2.13,8.88,8.88,0,0,1-7.05,0Z"/><path class="cls-2" d="M297.66,484.53h3.25l7.84,12.91-.3.3V484.53h2.91v16.76h-3.28l-7.82-12.71.3-.3v13h-2.9Z"/><path class="cls-2" d="M319.72,501.47l-1.46-.75a5.31,5.31,0,0,1-2.24-2.16,6.79,6.79,0,0,1-.78-3.34v-4.6a6.79,6.79,0,0,1,.78-3.34,5.31,5.31,0,0,1,2.24-2.16,7.33,7.33,0,0,1,3.44-.77,6.78,6.78,0,0,1,3,.65,5.91,5.91,0,0,1,2.21,1.86,7.19,7.19,0,0,1,1.21,2.88H325a3.91,3.91,0,0,0-.71-1.41,3.43,3.43,0,0,0-1.16-.93,3.24,3.24,0,0,0-1.45-.32,3.58,3.58,0,0,0-1.8.43,3,3,0,0,0-1.17,1.23,4.1,4.1,0,0,0-.41,1.88v4.6a4.1,4.1,0,0,0,.41,1.88,3,3,0,0,0,1.17,1.23,3.68,3.68,0,0,0,1.8.42,3.38,3.38,0,0,0,1.46-.31,3.28,3.28,0,0,0,1.16-.91,3.73,3.73,0,0,0,.7-1.44h3.08a7.33,7.33,0,0,1-1.22,2.88,5.87,5.87,0,0,1-2.22,1.86,6.69,6.69,0,0,1-3,.64Z"/><path class="cls-2" d="M331.23,484.53h3V501.3h-3Zm1.59,7.16h10.36v2.64H332.82Zm8.57-7.16h3V501.3h-3Z"/><path class="cls-1" d="M375.56,484.53h2.18l6.84,16.77h-3.22l-4.71-12.49-4.71,12.49h-3.21Z"/><path class="cls-2" d="M387.09,484.52h3V501.3h-3Zm1.72,14.13h4.25a4.33,4.33,0,0,0,2.87-.85,3,3,0,0,0,1-2.42v-4.94a3,3,0,0,0-1-2.42,4.33,4.33,0,0,0-2.87-.86h-4.25v-2.64H393a9.55,9.55,0,0,1,3.82.7,5.26,5.26,0,0,1,2.41,2.06,6.11,6.11,0,0,1,.83,3.25v4.76a6.12,6.12,0,0,1-.82,3.2,5.23,5.23,0,0,1-2.4,2.08,9.25,9.25,0,0,1-3.85.73h-4.16Z"/><path class="cls-2" d="M355.53,484.52h3V501.3h-3Zm1.44,7.63h5.82a2.49,2.49,0,0,0,1.27-.31,2.1,2.1,0,0,0,.85-.87,2.63,2.63,0,0,0,.31-1.3,2.79,2.79,0,0,0-.3-1.32,2.18,2.18,0,0,0-.85-.88,2.66,2.66,0,0,0-1.28-.31H357v-2.64h5.73a6.35,6.35,0,0,1,2.93.64,4.73,4.73,0,0,1,2,1.81,5.54,5.54,0,0,1,0,5.39,4.69,4.69,0,0,1-2,1.79,6.35,6.35,0,0,1-2.93.64H357Z"/></svg>