<svg id="Layer_1" data-name="Layer 1" xmlns="http://www.w3.org/2000/svg" viewBox="0 0 595.28 841.89"><defs><style>.cls-1{fill:#41c1c4;}.cls-2{fill:#0c1b32;}</style></defs><title>BVR logo</title><path class="cls-1" d="M166.7,422.86a3.63,3.63,0,0,0-1.28-1.42,4.62,4.62,0,0,0-2-.7,5,5,0,0,0,1.91-.7,3.51,3.51,0,0,0,1.18-1.28,3.7,3.7,0,0,0,.39-1.7,4.59,4.59,0,0,0-.62-2.46,4,4,0,0,0-1.87-1.58,7.34,7.34,0,0,0-3-.56H154v17h7.61a7.11,7.11,0,0,0,3-.57,4.2,4.2,0,0,0,1.91-1.6,4.53,4.53,0,0,0,.67-2.46v0A4.06,4.06,0,0,0,166.7,422.86Zm-5.6-7.76a3.3,3.3,0,0,1,2.05.54,1.88,1.88,0,0,1,.7,1.6,2,2,0,0,1-.66,1.62,2.9,2.9,0,0,1-1.91.56H157V415.1Zm3,9.37a2,2,0,0,1-.77,1.71,3.76,3.76,0,0,1-2.36.62H157V422h4.26a3.83,3.83,0,0,1,1.57.29,2,2,0,0,1,.94.82,2.63,2.63,0,0,1,.3,1.3Z"/><path class="cls-1" d="M168.85,412.46h3.2l4.17,12.31,4.17-12.31h3.19l-6.07,17h-2.59Z"/><path class="cls-1" d="M195.47,422.21a4.91,4.91,0,0,0,1.07-.4,4.44,4.44,0,0,0,1.84-1.75,5.61,5.61,0,0,0,0-5.24,4.44,4.44,0,0,0-1.84-1.75,5.79,5.79,0,0,0-2.73-.62h-7.69v17h3v-7h3l4,7h3.64Zm-6.33-7.09h4.58a2.18,2.18,0,0,1,1.13.29,1.92,1.92,0,0,1,.76.81,2.76,2.76,0,0,1,.26,1.21,2.79,2.79,0,0,1-.28,1.23,1.84,1.84,0,0,1-.75.81,2.17,2.17,0,0,1-1.12.29h-4.58Z"/><path class="cls-2" d="M213,429.43h-3.1v-17H213Z"/><path class="cls-2" d="M217.15,412.46h3.29l7.94,13.06-.31.3V412.46H231v17h-3.32l-7.91-12.86.31-.31v13.17h-2.94Z"/><path class="cls-2" d="M235.32,412.46h3.29l7.94,13.06-.31.3V412.46h2.94v17h-3.32L238,416.56l.3-.31v13.17h-2.94Z"/><path class="cls-2" d="M256.25,428.83a5.7,5.7,0,0,1-2.32-2.19,6.53,6.53,0,0,1-.82-3.29v-4.81a6.55,6.55,0,0,1,.82-3.29,5.7,5.7,0,0,1,2.32-2.19,8.06,8.06,0,0,1,6.92,0,5.64,5.64,0,0,1,2.32,2.19,6.45,6.45,0,0,1,.82,3.29v4.81a6.43,6.43,0,0,1-.82,3.29,5.64,5.64,0,0,1-2.32,2.19,8.06,8.06,0,0,1-6.92,0Zm5.29-2.41a3,3,0,0,0,1.23-1.2,3.67,3.67,0,0,0,.43-1.79v-5a3.67,3.67,0,0,0-.43-1.79,3,3,0,0,0-1.23-1.2,3.8,3.8,0,0,0-1.83-.42,3.86,3.86,0,0,0-1.83.42,2.94,2.94,0,0,0-1.22,1.2,3.57,3.57,0,0,0-.43,1.79v5a3.57,3.57,0,0,0,.43,1.79,2.94,2.94,0,0,0,1.22,1.2,3.86,3.86,0,0,0,1.83.42A3.8,3.8,0,0,0,261.54,426.42Z"/><path class="cls-2" d="M268.34,412.46h3.2l4.17,12.31,4.16-12.31h3.2l-6.07,17h-2.59Z"/><path class="cls-2" d="M291.69,412.46h-2.21l-6.92,17h3.26l1.22-3.23h7.09l1.22,3.23h3.26ZM288,423.54l2.54-6.75,2.55,6.75Z"/><path class="cls-2" d="M298.1,412.46h13.25v2.67H298.1Zm5.12,1.39h3v15.58h-3Z"/><path class="cls-1" d="M313.51,429.43h-3.09l6.18-17h3.09Z"/><path class="cls-2" d="M323.54,428.83a5.7,5.7,0,0,1-2.32-2.19,6.43,6.43,0,0,1-.82-3.29v-4.81a6.45,6.45,0,0,1,.82-3.29,5.7,5.7,0,0,1,2.32-2.19,8.06,8.06,0,0,1,6.92,0,5.64,5.64,0,0,1,2.32,2.19,6.45,6.45,0,0,1,.82,3.29v4.81a6.43,6.43,0,0,1-.82,3.29,5.64,5.64,0,0,1-2.32,2.19,8.06,8.06,0,0,1-6.92,0Zm5.29-2.41a3,3,0,0,0,1.23-1.2,3.67,3.67,0,0,0,.43-1.79v-5a3.67,3.67,0,0,0-.43-1.79,3,3,0,0,0-1.23-1.2,4.2,4.2,0,0,0-3.66,0,2.88,2.88,0,0,0-1.22,1.2,3.57,3.57,0,0,0-.43,1.79v5a3.57,3.57,0,0,0,.43,1.79,2.88,2.88,0,0,0,1.22,1.2,4.2,4.2,0,0,0,3.66,0Z"/><path class="cls-2" d="M337.28,412.46h3.29l7.94,13.06-.31.3V412.46h2.94v17h-3.32l-7.91-12.86.31-.31v13.17h-2.94Z"/><path class="cls-2" d="M375.27,420.12v3.14a6.58,6.58,0,0,1-.82,3.33,5.62,5.62,0,0,1-2.3,2.23,7.39,7.39,0,0,1-3.46.79,7.85,7.85,0,0,1-3.48-.74,5.56,5.56,0,0,1-2.34-2.1,5.91,5.91,0,0,1-.83-3.14v-5a6.58,6.58,0,0,1,.82-3.33,5.66,5.66,0,0,1,2.3-2.22,7.39,7.39,0,0,1,3.46-.79,7.08,7.08,0,0,1,3,.63,6,6,0,0,1,2.28,1.77,6.42,6.42,0,0,1,1.24,2.65h-3.27a3,3,0,0,0-.71-1.21,3.13,3.13,0,0,0-1.15-.76,3.59,3.59,0,0,0-1.37-.26,3.66,3.66,0,0,0-1.82.43,3.14,3.14,0,0,0-1.21,1.24,3.8,3.8,0,0,0-.43,1.85v5a3,3,0,0,0,.44,1.66,2.85,2.85,0,0,0,1.24,1.11,4.16,4.16,0,0,0,1.85.39,3.83,3.83,0,0,0,1.83-.41,3,3,0,0,0,1.21-1.2,4,4,0,0,0,.42-1.88v-.51h-3.27v-2.67Z"/><path class="cls-2" d="M388.29,422.21a4.52,4.52,0,0,0,1.08-.4,4.44,4.44,0,0,0,1.84-1.75,5.61,5.61,0,0,0,0-5.24,4.47,4.47,0,0,0-1.83-1.75,5.86,5.86,0,0,0-2.74-.62H379v17h3v-7h3l4,7h3.63ZM382,415.12h4.57a2.18,2.18,0,0,1,1.13.29,1.92,1.92,0,0,1,.76.81,2.63,2.63,0,0,1,.26,1.21,2.79,2.79,0,0,1-.27,1.23,1.92,1.92,0,0,1-.76.81,2.17,2.17,0,0,1-1.12.29H382Z"/><path class="cls-2" d="M398.12,428.83a5.64,5.64,0,0,1-2.32-2.19,6.43,6.43,0,0,1-.82-3.29v-4.81a6.45,6.45,0,0,1,.82-3.29,5.64,5.64,0,0,1,2.32-2.19,8.06,8.06,0,0,1,6.92,0,5.7,5.7,0,0,1,2.32,2.19,6.45,6.45,0,0,1,.82,3.29v4.81a6.43,6.43,0,0,1-.82,3.29,5.7,5.7,0,0,1-2.32,2.19,8.06,8.06,0,0,1-6.92,0Zm5.29-2.41a2.94,2.94,0,0,0,1.22-1.2,3.57,3.57,0,0,0,.43-1.79v-5a3.57,3.57,0,0,0-.43-1.79,2.94,2.94,0,0,0-1.22-1.2,4.2,4.2,0,0,0-3.66,0,3,3,0,0,0-1.23,1.2,3.67,3.67,0,0,0-.43,1.79v5a3.67,3.67,0,0,0,.43,1.79,3,3,0,0,0,1.23,1.2,4.2,4.2,0,0,0,3.66,0Z"/><path class="cls-2" d="M414.38,428.87a5.19,5.19,0,0,1-2.26-2.16,7,7,0,0,1-.77-3.42V412.46h3v10.91a3.43,3.43,0,0,0,.93,2.57,3.59,3.59,0,0,0,2.63.91,3.64,3.64,0,0,0,2.65-.91,3.43,3.43,0,0,0,.93-2.57V412.46h3v10.83a7,7,0,0,1-.78,3.42,5.19,5.19,0,0,1-2.26,2.16,9,9,0,0,1-7.13,0Z"/><path class="cls-2" d="M440.57,414.94a4.7,4.7,0,0,0-2-1.83,6.48,6.48,0,0,0-3-.65h-7.26v17h3v-6.59h4.24a6.48,6.48,0,0,0,3-.64,4.68,4.68,0,0,0,2-1.82,5.58,5.58,0,0,0,0-5.45ZM437.85,419a2.14,2.14,0,0,1-.86.88,2.63,2.63,0,0,1-1.28.31h-4.33v-5.05h4.33a2.57,2.57,0,0,1,1.29.32,2.17,2.17,0,0,1,.86.89,2.81,2.81,0,0,1,.3,1.33A2.68,2.68,0,0,1,437.85,419Z"/></svg>