<svg id="Layer_1" data-name="Layer 1" xmlns="http://www.w3.org/2000/svg" viewBox="0 0 595.28 841.89"><defs><style>.cls-1{fill:#0c1b32;}.cls-2{fill:#41c1c4;}</style></defs><title>BVR svgs</title><rect class="cls-1" x="278.73" y="370.49" width="29.25" height="94.35"/><polygon class="cls-2" points="307.98 363.82 278.73 363.82 287.3 340.28 316.55 340.28 307.98 363.82"/><path class="cls-2" d="M186.48,484.3h3v16.78h-3Zm1.5,14.17h5.38a3.69,3.69,0,0,0,2.33-.61,2,2,0,0,0,.76-1.69v0a2.55,2.55,0,0,0-.3-1.28,1.93,1.93,0,0,0-.93-.82,3.9,3.9,0,0,0-1.55-.28H188v-2.58h5.69a2.84,2.84,0,0,0,1.89-.56,2,2,0,0,0,.65-1.6,1.86,1.86,0,0,0-.69-1.57,3.23,3.23,0,0,0-2-.54H188V484.3h5.8a7.23,7.23,0,0,1,3,.55,4,4,0,0,1,1.84,1.56,4.63,4.63,0,0,1,.62,2.44,3.53,3.53,0,0,1-.4,1.68,3.4,3.4,0,0,1-1.16,1.26,4.72,4.72,0,0,1-1.88.69,4.54,4.54,0,0,1,2,.7,3.6,3.6,0,0,1,1.27,1.39,4.12,4.12,0,0,1,.44,1.9v0a4.42,4.42,0,0,1-.66,2.43,4.29,4.29,0,0,1-1.89,1.58,7.09,7.09,0,0,1-2.93.56h-6Z"/><path class="cls-2" d="M201.16,484.3h3.15l4.12,12.17,4.12-12.17h3.16l-6,16.78h-2.55Z"/><path class="cls-2" d="M218.21,484.29h3v16.79h-3Zm1.24,7.22h6.28a2.13,2.13,0,0,0,1.11-.28,1.91,1.91,0,0,0,.74-.8,2.73,2.73,0,0,0,.28-1.21,2.53,2.53,0,0,0-.27-1.2,1.88,1.88,0,0,0-.74-.81,2.27,2.27,0,0,0-1.12-.28h-6.28v-2.64h6.37a5.72,5.72,0,0,1,2.7.61,4.44,4.44,0,0,1,1.81,1.73,5.49,5.49,0,0,1,0,5.18,4.38,4.38,0,0,1-1.81,1.73,5.77,5.77,0,0,1-2.7.61h-6.37Zm4.4,2.12,3.11-.53,4.78,8h-3.59Z"/><path class="cls-1" d="M244.75,501.08H241.7V484.3h3.05Z"/><path class="cls-1" d="M248.88,484.3h3.26L260,497.21l-.3.3V484.3h2.9v16.76H259.3l-7.81-12.71.3-.3v13h-2.91Z"/><path class="cls-1" d="M265.34,484.3h13.1v2.64h-13.1Zm5.06,1.37h3v15.41h-3Z"/><path class="cls-1" d="M280.69,484.3h3v16.78h-3Zm1.24,0h10.71v2.64H281.93Zm0,7.13h9.33v2.63h-9.33Zm0,7h10.71v2.65H281.93Z"/><path class="cls-1" d="M296,484.3h3v16.78h-3Zm1.4,14.13H308v2.65H297.42Z"/><path class="cls-1" d="M310.72,484.3h3v16.78h-3Zm1.41,14.13h10.54v2.65H312.13Z"/><path class="cls-2" d="M325.73,501.08h-3.06l6.11-16.78h3.05Z"/><path class="cls-1" d="M345.19,491.87V495a6.56,6.56,0,0,1-.81,3.3,5.56,5.56,0,0,1-2.28,2.2,7.18,7.18,0,0,1-3.41.78,7.88,7.88,0,0,1-3.45-.73,5.53,5.53,0,0,1-2.31-2.07,5.92,5.92,0,0,1-.82-3.11v-4.95a6.55,6.55,0,0,1,.81-3.29,5.6,5.6,0,0,1,2.28-2.19,7.18,7.18,0,0,1,3.41-.78,7.05,7.05,0,0,1,2.95.61,6.17,6.17,0,0,1,2.25,1.75,6.4,6.4,0,0,1,1.23,2.62h-3.23a2.92,2.92,0,0,0-.7-1.19,3.15,3.15,0,0,0-1.14-.75,3.5,3.5,0,0,0-1.36-.26,3.57,3.57,0,0,0-1.79.43,3.06,3.06,0,0,0-1.2,1.22,3.86,3.86,0,0,0-.42,1.83v4.95a3.12,3.12,0,0,0,.43,1.65,2.82,2.82,0,0,0,1.22,1.09,4.15,4.15,0,0,0,1.84.39,3.85,3.85,0,0,0,1.8-.41,2.81,2.81,0,0,0,1.2-1.19,3.86,3.86,0,0,0,.42-1.85v-.51h-3.23v-2.64Z"/><path class="cls-1" d="M348.82,484.3h3v16.78h-3Zm1.24,0h10.71v2.64H350.06Zm0,7.13h9.33v2.63h-9.33Zm0,7h10.71v2.65H350.06Z"/><path class="cls-1" d="M364.15,484.3h3.26l7.83,12.91-.3.3V484.3h2.91v16.76h-3.28l-7.82-12.71.3-.3v13h-2.9Z"/><path class="cls-1" d="M386.22,501.25l-1.46-.76a5.19,5.19,0,0,1-2.24-2.16,6.67,6.67,0,0,1-.79-3.33v-4.61a6.67,6.67,0,0,1,.79-3.33,5.27,5.27,0,0,1,2.24-2.17,7.3,7.3,0,0,1,3.44-.76,6.74,6.74,0,0,1,3,.64,5.89,5.89,0,0,1,2.22,1.87,7.18,7.18,0,0,1,1.2,2.88h-3.08a4,4,0,0,0-.71-1.42,3.46,3.46,0,0,0-1.16-.93,3.37,3.37,0,0,0-1.44-.32,3.53,3.53,0,0,0-1.8.43,2.89,2.89,0,0,0-1.17,1.23,4,4,0,0,0-.42,1.88V495a4,4,0,0,0,.42,1.88,2.82,2.82,0,0,0,1.17,1.22,3.63,3.63,0,0,0,1.8.43,3.35,3.35,0,0,0,1.45-.32,3.09,3.09,0,0,0,1.16-.91,3.59,3.59,0,0,0,.7-1.44h3.08a7.2,7.2,0,0,1-1.22,2.88,5.84,5.84,0,0,1-2.21,1.86,6.73,6.73,0,0,1-3,.65Z"/><path class="cls-1" d="M397.72,484.3h3v16.78h-3Zm1.24,0h10.71v2.64H399Zm0,7.13h9.33v2.63H399Zm0,7h10.71v2.65H399Z"/></svg>