<?xml version="1.0" encoding="UTF-8"?>
<svg width="600" height="600" viewBox="0 0 600 600" fill="none" xmlns="http://www.w3.org/2000/svg">
    <defs>
        <linearGradient id="shapeGradient" x1="0%" y1="0%" x2="100%" y2="100%">
            <stop offset="0%" style="stop-color:#3EB8BA;stop-opacity:0.1" />
            <stop offset="100%" style="stop-color:#3EB8BA;stop-opacity:0.3" />
        </linearGradient>

        <!-- Animated mask for the flowing effect -->
        <mask id="flowMask">
            <rect width="600" height="600" fill="white" />
            <path d="M0 300 Q150 200, 300 300 T600 300" stroke="black" stroke-width="100"
                stroke-linecap="round">
                <animate attributeName="d"
                    values="M0 300 Q150 200, 300 300 T600 300;
                            M0 300 Q150 400, 300 300 T600 300;
                            M0 300 Q150 200, 300 300 T600 300"
                    dur="8s" repeatCount="indefinite" />
            </path>
        </mask>
    </defs>

    <!-- Main abstract shape -->
    <g mask="url(#flowMask)">
        <!-- Base shape -->
        <path
            d="M100 100 
                 C200 50, 400 50, 500 100 
                 C550 200, 550 400, 500 500 
                 C400 550, 200 550, 100 500 
                 C50 400, 50 200, 100 100"
            fill="url(#shapeGradient)" />

        <!-- Decorative elements -->
        <path d="M150 200 C250 150, 350 150, 450 200"
            stroke="#3EB8BA" stroke-width="2" stroke-dasharray="4 4">
            <animate attributeName="stroke-dashoffset" values="0;8" dur="1s"
                repeatCount="indefinite" />
        </path>

        <path d="M150 400 C250 350, 350 350, 450 400"
            stroke="#3EB8BA" stroke-width="2" stroke-dasharray="4 4">
            <animate attributeName="stroke-dashoffset" values="0;8" dur="1s"
                repeatCount="indefinite" />
        </path>

        <!-- Floating dots -->
        <circle cx="200" cy="250" r="4" fill="#3EB8BA">
            <animate attributeName="cy" values="250;270;250" dur="3s" repeatCount="indefinite" />
        </circle>
        <circle cx="400" cy="350" r="4" fill="#3EB8BA">
            <animate attributeName="cy" values="350;330;350" dur="3s" repeatCount="indefinite" />
        </circle>

        <!-- Glowing center -->
        <circle cx="300" cy="300" r="100" fill="#3EB8BA" fill-opacity="0.05">
            <animate attributeName="r" values="100;120;100" dur="4s" repeatCount="indefinite" />
            <animate attributeName="fill-opacity" values="0.05;0.1;0.05" dur="4s"
                repeatCount="indefinite" />
        </circle>
    </g>
</svg> 